<svg xmlns="http://www.w3.org/2000/svg" width="100" height="100" fill-rule="evenodd" clip-rule="evenodd" image-rendering="optimizeQuality" shape-rendering="geometricPrecision" text-rendering="geometricPrecision" viewBox="0 0 100000 100000" id="telephone"><path d="M50211 41417l0 -4217c0,-3607 -5654,-3607 -5654,0l0 4093c-1479,90 -2976,390 -4358,1175 -4626,2627 -9410,13128 -11543,20090 -1218,490 -2487,790 -3812,799 -1910,17 -3499,-574 -4819,-1976 -481,-509 -856,-1069 -1091,-1620 1009,141 2089,27 2991,-468 2141,-1181 1711,-3495 -383,-4488 -1653,-787 -3632,-627 -4804,884 -258,-200 -517,-418 -769,-650 -958,-881 -1819,-1936 -2386,-2952 -299,-533 -512,-1050 -636,-1530 1044,892 2365,1478 3632,1747 2476,526 5957,-127 5755,-3401 -88,-1455 -1047,-2701 -2306,-3381 -1133,-611 -2688,-865 -4176,-780 -803,45 -1609,191 -2344,431 363,-2607 3493,-4480 5477,-5629 1277,-741 2680,-1464 4131,-2178 510,1827 1381,3570 2265,5110 3438,6005 4561,2690 11705,-826 7138,-3515 4233,-6187 3451,-8421 -1652,-4725 33232,-4725 31582,0 -782,2236 -3690,4906 3453,8421 7142,3516 8261,6829 11704,826 3110,-5430 6070,-13369 -6367,-18641 -10277,-4353 -39947,-4366 -50231,476 -6212,2920 -8090,6573 -8016,10144 -1796,876 -3542,1753 -5091,2650 -2189,1266 -4046,2602 -5228,4065 -1230,1522 -1732,3162 -1683,4698 13,394 62,778 144,1153 -487,685 -746,1492 -792,2372 -63,1258 329,2666 1109,4062 718,1288 1777,2593 2938,3660 568,523 1169,997 1779,1393 0,1813 911,3510 2133,4805 1850,1967 4215,2882 6895,2861 985,-6 1981,-142 2934,-378l-86 435c-1340,7131 735,12299 8450,12984 2437,217 37889,217 40326,0 7715,-685 9790,-5853 8451,-12984 -1146,-6097 -6930,-20609 -12486,-23763 -1382,-785 -2878,-1085 -4359,-1175l0 -4093c0,-3607 -5654,-3607 -5654,0l0 4217c-3450,85 -8779,85 -12231,0zm-35953 6471c116,145 245,284 381,411 674,632 1608,1050 2527,1246 2360,501 3200,-641 1525,-1539 -666,-360 -1672,-504 -2686,-446 -628,34 -1236,145 -1747,328zm42069 9034c1468,0 2657,1190 2657,2658 0,1468 -1189,2659 -2657,2659 -1469,0 -2658,-1191 -2658,-2659 0,-1468 1189,-2658 2658,-2658zm-7561 332c1468,0 2658,1190 2658,2658 0,1469 -1190,2659 -2658,2659 -1467,0 -2658,-1190 -2658,-2659 0,-1468 1191,-2658 2658,-2658zm0 -6728c1468,0 2658,1189 2658,2657 0,1467 -1190,2659 -2658,2659 -1467,0 -2658,-1192 -2658,-2659 0,-1468 1191,-2657 2658,-2657zm0 13460c1468,0 2658,1189 2658,2656 0,1468 -1190,2659 -2658,2659 -1467,0 -2658,-1191 -2658,-2659 0,-1467 1191,-2656 2658,-2656zm15122 -7397c1468,0 2658,1191 2658,2659 0,1468 -1190,2659 -2658,2659 -1469,0 -2659,-1191 -2659,-2659 0,-1468 1190,-2659 2659,-2659zm0 -6728c1468,0 2658,1190 2658,2658 0,1468 -1190,2657 -2658,2657 -1469,0 -2659,-1189 -2659,-2657 0,-1468 1190,-2658 2659,-2658zm-7561 332c1468,0 2657,1190 2657,2658 0,1466 -1189,2657 -2657,2657 -1469,0 -2658,-1191 -2658,-2657 0,-1468 1189,-2658 2658,-2658zm0 13459c1468,0 2657,1191 2657,2657 0,1468 -1189,2658 -2657,2658 -1469,0 -2658,-1190 -2658,-2658 0,-1466 1189,-2657 2658,-2657zm7561 -331c1468,0 2658,1190 2658,2658 0,1468 -1190,2657 -2658,2657 -1469,0 -2659,-1189 -2659,-2657 0,-1468 1190,-2658 2659,-2658z"></path></svg>