<svg xmlns="http://www.w3.org/2000/svg" fill-rule="evenodd" stroke-linejoin="round" stroke-miterlimit="2" clip-rule="evenodd" viewBox="0 0 32 32" id="accountant"><path d="M21,6c0,-0.796 -0.316,-1.559 -0.879,-2.121c-0.562,-0.563 -1.325,-0.879 -2.121,-0.879l-12,0c-0.796,0 -1.559,0.316 -2.121,0.879c-0.563,0.562 -0.879,1.325 -0.879,2.121c0,4.52 0,15.48 0,20c-0,0.796 0.316,1.559 0.879,2.121c0.562,0.563 1.325,0.879 2.121,0.879l12,0c0.796,-0 1.559,-0.316 2.121,-0.879c0.563,-0.562 0.879,-1.325 0.879,-2.121l-0,-20Zm-2,7l-0,13c0,0.265 -0.105,0.52 -0.293,0.707c-0.187,0.188 -0.442,0.293 -0.707,0.293c-0,0 -12,0 -12,0c-0.265,-0 -0.52,-0.105 -0.707,-0.293c-0.188,-0.187 -0.293,-0.442 -0.293,-0.707l0,-13l14,-0Zm0,-2l-14,-0l0,-5c-0,-0.265 0.105,-0.52 0.293,-0.707c0.187,-0.188 0.442,-0.293 0.707,-0.293c0,0 12,-0 12,-0c0.265,0 0.52,0.105 0.707,0.293c0.188,0.187 0.293,0.442 0.293,0.707l0,5Z"></path><path d="M15 20l0 4c0 .552.448 1 1 1 .552 0 1-.448 1-1l0-4c0-.552-.448-1-1-1-.552 0-1 .448-1 1zM8 17l4 0c.552 0 1-.448 1-1 0-.552-.448-1-1-1l-4 0c-.552 0-1 .448-1 1 0 .552.448 1 1 1zM8 21l4 0c.552 0 1-.448 1-1 0-.552-.448-1-1-1l-4 0c-.552 0-1 .448-1 1 0 .552.448 1 1 1zM8 25l4 0c.552 0 1-.448 1-1 0-.552-.448-1-1-1l-4 0c-.552 0-1 .448-1 1 0 .552.448 1 1 1z"></path><circle cx="16.019" cy="16.069" r="1.25"></circle><path d="M29,4c0,-0.552 -0.448,-1 -1,-1l-4,0c-0.552,0 -1,0.448 -1,1l0,21c0,0.197 0.058,0.39 0.168,0.555l2,3c0.185,0.278 0.498,0.445 0.832,0.445c0.334,0 0.647,-0.167 0.832,-0.445l2,-3c0.11,-0.165 0.168,-0.358 0.168,-0.555l0,-21Zm-2,5.026l-0,15.671c0,0 -1,1.5 -1,1.5c-0,0 -1,-1.5 -1,-1.5l0,-15.671l2,-0Zm0,-2l-2,-0l0,-2.026l2,-0l0,2.026Z"></path></svg>